<?xml version="1.0" encoding="UTF-8" standalone="no"?>
<svg
   height="128"
   width="128"
   version="1.1"
   id="svg26"
   sodipodi:docname="icon.svg"
   inkscape:version="1.1.2 (b8e25be833, 2022-02-05)"
   xmlns:inkscape="http://www.inkscape.org/namespaces/inkscape"
   xmlns:sodipodi="http://sodipodi.sourceforge.net/DTD/sodipodi-0.dtd"
   xmlns:xlink="http://www.w3.org/1999/xlink"
   xmlns="http://www.w3.org/2000/svg"
   xmlns:svg="http://www.w3.org/2000/svg">
  <defs
     id="defs30" />
  <sodipodi:namedview
     id="namedview28"
     pagecolor="#ffffff"
     bordercolor="#666666"
     borderopacity="1.0"
     inkscape:pageshadow="2"
     inkscape:pageopacity="0.0"
     inkscape:pagecheckerboard="0"
     showgrid="false"
     inkscape:zoom="6.3203125"
     inkscape:cx="64"
     inkscape:cy="64"
     inkscape:window-width="1920"
     inkscape:window-height="1018"
     inkscape:window-x="-1926"
     inkscape:window-y="-6"
     inkscape:window-maximized="1"
     inkscape:current-layer="svg26"
     inkscape:snap-page="true" />
  <image
     width="128"
     height="128"
     preserveAspectRatio="none"
     xlink:href="icons/pig-rescue-logo-432px_background.png"
     id="image938"
     x="0"
     y="1.44e-06"
     style="stroke-width:4.5" />
  <g
     id="g65400"
     transform="matrix(0.3124132,0,0,0.3124132,17.823493,25.586525)">
    <g
       id="g65372"
       transform="rotate(-1.4711244,-200.0199,7.8494498)">
      <g
         aria-label="Piggy Rescue"
         id="g65007"
         style="font-size:88.1944px;line-height:1.25;letter-spacing:9.26042px;fill:#000000;stroke:#000000;stroke-width:2.065"
         transform="rotate(-1.2831627,6479.0634,52976.056)">
        <path
           d="m 1142.6101,-30.099281 q -0.1487,-3.965961 2.3146,-6.529507 2.5514,-2.56685 6.8204,-4.050768 4.357,-1.487223 9.5403,-2.122863 5.1833,-0.635641 10.295,-0.827315 5.993,-0.22472 11.7811,1.146857 5.7914,1.459711 10.4999,4.636899 4.7999,3.262016 7.7269,8.359385 2.9271,5.097369 3.1948,12.236098 0.271,7.226862 -2.5074,13.1559644 -2.7751,6.0172351 -8.1952,9.7507307 -5.4202,3.7334955 -13.0877,4.0210058 -6.8744,0.2577679 -11.8891,-1.672347 -5.0147,-1.9301149 -8.323,-5.424576 -3.2168,-3.40963329 -4.8803,-7.7600761 -1.6602,-4.2623104 -1.7406,-8.7603708 0.01,-4.501365 1.4487,-8.438678 -2.0986,0.519976 -4.3019,0.602594 -2.2001,0.17075 -4.1687,-0.549738 -1.8772,-0.635661 -3.1838,-2.528309 -1.2151,-1.80782 -1.344,-5.244986 z m 25.2786,15.114787 q 0.1189,3.172768 2.4963,5.3782896 2.4688,2.2903491 5.5534,2.174684 3.1728,-0.1189698 5.375,-2.5844686 2.2937,-2.380672 2.1747,-5.55344 -0.119,-3.172769 -2.5878,-5.463118 -2.3773,-2.205521 -5.5501,-2.086551 -3.0846,0.115665 -5.3783,2.496336 -2.2022,2.465499 -2.0832,5.638268 z"
           style="font-family:'Cherry Bomb One';-inkscape-font-specification:'Cherry Bomb One, Normal';fill:#000000"
           id="path64985" />
        <path
           d="m 1192.3088,18.192222 q -1.2633,-4.132763 0.8121,-7.902731 2.1598,-3.795749 6.4612,-5.1105824 2.8677,-0.8765556 5.5316,-0.3075124 2.6897,0.6533853 4.7095,2.433783 2.1299,1.8389588 2.9807,4.6222478 0.825,2.698947 0.061,5.33012 -0.6534,2.689733 -2.5181,4.735295 -1.8648,2.045562 -4.7324,2.922117 -2.8676,0.876556 -5.6417,0.248952 -2.6898,-0.653386 -4.8197,-2.492344 -2.0197,-1.780398 -2.8447,-4.479345 z m -40.9059,12.503808 q -1.0313,-3.373684 0.393,-5.65349 1.45,-2.195464 5.2336,-3.997568 3.8937,-1.743543 10.1936,-3.761464 6.3257,-1.933578 10.5288,-2.665016 4.2289,-0.647095 6.6,0.472563 2.4555,1.093878 3.4867,4.467562 1.0313,3.373684 -0.4187,5.569148 -1.34,2.254025 -5.2079,4.08191 -3.868,1.827885 -10.1936,3.761463 -6.2999,2.017921 -10.5288,2.665017 -4.1445,0.621314 -6.6,-0.472564 -2.4555,-1.093878 -3.4867,-4.467561 z"
           style="font-family:'Cherry Bomb One';-inkscape-font-specification:'Cherry Bomb One, Normal';fill:#000000"
           id="path64987" />
        <path
           d="m 1155.0655,76.43544 q -2.5623,-4.222208 -2.6423,-8.093909 -0.1554,-3.825945 2.6342,-5.518916 2.8651,-1.738727 5.9584,-0.211516 3.0932,1.527212 4.6406,5.436898 1.9134,4.512859 5.0119,7.068572 3.0688,2.676865 5.6213,1.953115 -1.4106,-0.794542 -3.1442,-2.63111 -1.7335,-1.836568 -3.335,-4.475448 -3.1114,-5.126966 -3.754,-9.585724 -0.5214,-4.429118 0.6101,-8.004413 1.2069,-3.621051 3.3263,-6.248422 2.2407,-2.59773 4.5779,-4.016165 6.1826,-3.75199 12.0062,-3.675444 5.8695,0.151941 10.5725,2.971829 4.7031,2.819888 7.357,7.192889 0.8693,1.432535 1.8328,3.530114 1.0846,2.127219 1.577,3.788534 2.2509,-0.540727 4.2809,0.08431 2.0757,0.70044 3.9517,3.791699 1.6472,2.714276 0.8604,5.667693 -0.7113,2.907661 -3.2374,5.884964 -2.4507,2.931547 -6.0214,5.717481 -3.4953,2.740178 -7.6124,5.135604 -3.996,2.425067 -7.7685,4.198615 -7.4694,3.50134 -14.4724,3.521487 -7.0029,0.02015 -12.904,-3.413848 -5.8553,-3.358599 -9.9276,-10.068894 z m 26.6492,-12.355555 q 1.4185,2.337294 4.205,3.019028 2.7865,0.681733 5.0484,-0.690946 2.3373,-1.418435 3.019,-4.204944 0.6817,-2.786508 -0.7367,-5.123802 -1.4184,-2.337293 -4.2049,-3.019027 -2.7408,-0.606337 -5.0781,0.812098 -2.2619,1.372679 -2.9894,4.083791 -0.6817,2.786509 0.7367,5.123802 z"
           style="font-family:'Cherry Bomb One';-inkscape-font-specification:'Cherry Bomb One, Normal';fill:#000000"
           id="path64989" />
        <path
           d="m 1196.1639,126.63168 q -3.7586,-3.20388 -5.0505,-6.85457 -1.3491,-3.58357 0.7678,-6.06699 2.174,-2.55054 5.5904,-2.07204 3.4164,0.47849 6.1133,3.70442 3.2339,3.68363 6.9782,5.13696 3.7542,1.57766 5.9503,0.0889 -1.5888,-0.31132 -3.8114,-1.51055 -2.2226,-1.19922 -4.5718,-3.20165 -4.5641,-3.89043 -6.5745,-7.92179 -1.886,-4.04127 -1.9346,-7.79103 0.01,-3.816883 1.1958,-6.97694 1.3114,-3.169965 3.085,-5.250668 4.6914,-5.503792 10.2444,-7.260054 5.6202,-1.699049 10.9709,-0.498842 5.3508,1.200207 9.2437,4.518514 1.2753,1.087031 2.8487,2.775907 1.6978,1.678968 2.687,3.101596 1.9673,-1.220288 4.0908,-1.264379 2.1907,0.01312 4.9426,2.35882 2.4163,2.059639 2.5969,5.110717 0.2377,2.983959 -1.2255,6.603949 -1.406,3.55286 -3.9211,7.31923 -2.4579,3.69924 -5.6145,7.26648 -3.0323,3.55733 -6.0568,6.42588 -5.992,5.66998 -12.6343,7.88841 -6.6423,2.21842 -13.3233,0.81141 -6.6138,-1.3498 -12.5875,-6.44169 z m 21.4207,-20.09967 q 2.0807,1.77357 4.9403,1.54571 2.8597,-0.22787 4.576,-2.24145 1.7736,-2.0807 1.5457,-4.94033 -0.2278,-2.859629 -2.3085,-4.633206 -2.0807,-1.773578 -4.9404,-1.545712 -2.7925,0.285079 -4.5661,2.365781 -1.7163,2.013583 -1.5556,4.815997 0.2279,2.85963 2.3086,4.63321 z"
           style="font-family:'Cherry Bomb One';-inkscape-font-specification:'Cherry Bomb One, Normal';fill:#000000"
           id="path64991" />
        <path
           d="m 1246.8015,157.25964 q -2.6923,-1.10538 -4.7569,-2.81105 -2.0164,-1.59059 -2.8485,-3.74365 -0.8656,-2.07148 0.1058,-4.43747 1.1724,-2.8555 4.386,-3.25216 3.2137,-0.39666 6.4102,1.10636 3.5562,1.55543 5.6818,1.95141 2.2406,0.3479 3.8372,-0.52202 -7.5059,-3.08167 -11.0888,-7.12679 -3.5828,-4.04511 -3.7131,-9.53291 -0.049,-5.45431 2.9994,-12.87862 1.6413,-3.9977 3.797,-6.92617 2.1892,-3.01005 4.788,-4.23119 2.7139,-1.26923 5.7326,-0.0299 4.0793,1.67482 4.8212,4.74424 0.7754,2.98782 -0.4975,6.08808 -1.1389,2.77392 -2.3258,5.43276 -1.1535,2.57724 -1.7461,4.71738 -0.5927,2.14013 -0.034,3.79937 0.5581,1.65924 2.8425,2.59714 2.2845,0.9379 3.8475,0.14957 1.5631,-0.78834 2.6452,-2.72749 1.0822,-1.93916 2.039,-4.50182 0.9903,-2.64424 2.1292,-5.41816 1.4068,-3.4266 4.0245,-4.92599 2.7328,-1.54748 6.7305,0.0938 3.1003,1.27286 4.0578,4.04943 1.0725,2.72847 0.515,6.40845 -0.524,3.5984 -2.1653,7.59611 -2.7467,6.69003 -6.8614,12.53238 -3.9997,5.79425 -9.3399,9.51271 -5.2587,3.75197 -11.8011,4.59338 -6.4609,0.8749 -14.2115,-2.30725 z"
           style="font-family:'Cherry Bomb One';-inkscape-font-specification:'Cherry Bomb One, Normal';fill:#000000"
           id="path64993" />
        <path
           d="m 1341.9258,162.10302 q -3.9378,0.49466 -6.8817,-1.71326 -2.8675,-2.30642 -4.8938,-6.40738 -2.0372,-4.18846 -3.2983,-9.27441 -1.1736,-5.09694 -1.8111,-10.17232 -0.7475,-5.95046 0.1131,-11.83625 0.9481,-5.89679 3.7018,-10.86485 2.8301,-5.06656 7.6522,-8.42782 4.8222,-3.36126 11.9102,-4.25165 7.1756,-0.901378 13.3247,1.34835 6.2367,2.23873 10.4295,7.31196 4.1928,5.07322 5.1492,12.6863 0.8354,6.65051 -0.5617,11.80371 -1.3206,5.0547 -4.1626,8.61166 1.5654,1.84777 2.6388,4.02401 1.0734,2.17624 1.3372,4.2764 0.3078,2.45019 -0.763,4.54022 -1.0817,2.00253 -3.05,3.31642 -1.8807,1.30291 -4.1559,1.58871 -1.9252,0.24184 -3.6647,-0.16185 -1.7396,-0.4037 -3.9391,-1.63848 -2.0136,-1.16927 -3.6995,-3.26856 -1.6969,-2.1868 -2.8577,-4.35205 -3.1067,0.0347 -5.9623,-0.76212 0.7013,2.0452 0.9761,4.23287 0.3623,2.17667 -0.1834,4.20075 -0.4692,1.92558 -2.2405,3.39251 -1.6947,1.36842 -5.1075,1.79713 z m 11.9074,-26.91761 q 3.1502,-0.39572 5.1506,-2.86919 2.0768,-2.57197 1.7031,-5.5472 -0.3847,-3.06273 -3.0222,-4.95361 -2.561,-1.98937 -5.7113,-1.59364 -3.1502,0.39573 -5.2271,2.9677 -2.0003,2.47347 -1.6156,5.5362 0.3737,2.97523 2.9347,4.9646 2.6375,1.89087 5.7878,1.49514 z"
           style="font-family:'Cherry Bomb One';-inkscape-font-specification:'Cherry Bomb One, Normal';fill:#000000"
           id="path64995" />
        <path
           d="m 1410.8007,143.56246 q -5.9981,2.78852 -11.6349,2.58854 -5.5939,-0.31713 -10.0493,-3.20604 -4.4126,-3.00607 -6.9036,-8.36435 -2.4168,-5.19832 -1.9825,-10.74949 0.5143,-5.58836 3.6859,-10.27242 3.2516,-4.72125 9.0098,-7.39823 5.3582,-2.49108 10.2009,-2.11643 4.8426,0.37465 8.4035,2.80406 3.6037,2.31226 5.314,5.99107 1.7103,3.67882 1.1463,6.85883 -0.6012,3.10004 -2.7255,5.64376 -2.0814,2.42656 -4.9345,4.23928 -2.8532,1.81273 -5.7638,2.87411 -2.9478,0.98142 -5.1647,1.23395 2.5178,1.65001 5.0861,1.52586 2.6111,-0.24131 4.9731,-1.43669 2.4049,-1.31254 4.2183,-2.64192 2.219,-1.71241 4.1903,-1.65627 1.9712,0.0561 2.8692,1.77839 0.7492,1.40235 0.2988,3.36241 -0.3704,1.92288 -2.6862,4.26386 -2.3529,2.261 -7.5512,4.67772 z m -15.6944,-19.74176 q 1.3946,0.90779 3.1744,0.76118 1.7426,-0.22658 3.1877,-1.09295 1.5251,-0.90356 2.2302,-2.10667 0.785,-1.24029 0.1901,-2.51988 -0.632,-1.35956 -2.235,-1.8787 -1.5602,-0.6363 -3.8795,0.44193 -2.2393,1.04105 -2.7696,3.03829 -0.5676,1.91727 0.1017,3.3568 z"
           style="font-family:'Cherry Bomb One';-inkscape-font-specification:'Cherry Bomb One, Normal';fill:#000000"
           id="path64997" />
        <path
           d="m 1450.334,117.86672 q -5.9004,5.04192 -11.0485,6.07681 -5.1481,1.03489 -7.7836,-2.04937 -1.8334,-2.14557 -1.2848,-4.35449 0.5583,-2.33327 2.5698,-4.0521 1.6092,-1.37507 2.8051,-1.46892 1.2629,-0.15114 2.3247,-0.1304 1.0618,0.0207 1.9335,-0.72409 1.408,-1.20318 0.5486,-2.20892 -1.1459,-1.34098 -3.2707,-0.56936 -2.0578,0.71434 -5.3212,1.64686 -4.5362,1.20801 -7.663,0.39972 -3.1842,-0.87533 -5.0176,-3.02091 -2.1772,-2.54786 -2.3149,-6.37449 -0.1377,-3.826619 1.8872,-8.109133 2.092,-4.339809 6.7184,-8.293134 3.8888,-3.323085 7.8898,-4.885849 4.001,-1.562764 7.4156,-1.232342 3.3572,0.263373 5.248,2.475994 1.7761,2.078523 1.3518,4.2972 -0.4243,2.218677 -2.5698,4.052103 -1.2069,1.031302 -2.2309,1.326297 -1.0143,0.170651 -1.9042,0.351056 -0.8229,0.123111 -1.8286,0.98253 -0.5364,0.458356 -0.5949,1.204419 -0.1158,0.679013 0.3425,1.215405 0.3438,0.402295 1.0228,0.518117 0.679,0.115822 1.7128,-0.303516 2.6514,-1.105641 5.5126,-1.694397 2.8709,-0.7131 5.5772,-0.125469 2.716,0.463288 4.8932,3.011154 3.7242,4.358195 1.7541,10.333975 -1.9701,5.97579 -8.675,11.70525 z"
           style="font-family:'Cherry Bomb One';-inkscape-font-specification:'Cherry Bomb One, Normal';fill:#000000"
           id="path64999" />
        <path
           d="m 1486.0219,77.404306 q -3.2122,4.642084 -8.1578,7.275439 -5.0188,2.584309 -10.6936,2.50128 -5.6257,-0.156328 -10.61,-3.491464 -5.3508,-3.580367 -7.4215,-8.573882 -2.0949,-5.11586 -1.3765,-10.471545 0.6943,-5.47803 3.7351,-10.022562 3.139,-4.69113 7.3256,-6.983325 4.1134,-2.34124 8.2473,-2.334213 4.1096,-0.115318 7.1149,1.895573 2.4921,1.667568 2.9281,4.187768 0.4118,2.397854 -1.7462,5.623006 -1.1772,1.759174 -2.4744,2.270644 -1.3216,0.389126 -2.6426,0.460263 -1.2719,-0.0022 -2.5202,0.436009 -1.2725,0.315827 -2.3515,1.928403 -1.2752,1.905772 -0.9367,4.25458 0.3875,2.275509 2.5864,3.746893 2.2723,1.52043 4.5236,1.010581 2.1779,-0.558896 3.5022,-2.537966 1.0299,-1.539277 1.1296,-2.639842 0.026,-1.149611 -0.2409,-2.177417 -0.2182,-1.101105 -0.02,-2.348268 0.1245,-1.296208 1.3506,-3.128681 2.1581,-3.225152 4.8981,-3.514023 2.7159,-0.411216 4.6217,0.863983 2.4188,1.618522 3.3426,4.995677 0.9238,3.377155 0.011,7.75408 -0.9858,4.327879 -4.1248,9.019009 z"
           style="font-family:'Cherry Bomb One';-inkscape-font-specification:'Cherry Bomb One, Normal';fill:#000000"
           id="path65001" />
        <path
           d="m 1508.3056,29.908139 q -1.9263,6.235621 -6.3916,9.933071 -4.5235,3.587154 -10.7817,4.423064 -6.3164,0.725613 -13.5632,-1.513093 -7.0783,-2.186642 -10.4462,-5.627046 -3.3418,-3.524669 -2.0663,-7.653661 0.9111,-2.94928 2.4751,-4.127644 1.5901,-1.262628 3.4316,-1.24759 1.7832,-0.09526 3.637,0.477434 2.3595,0.72888 4.699,1.820853 2.3656,1.007708 5.1464,1.866746 3.9604,1.223479 6.3089,0.195133 2.2902,-1.138642 2.8889,-3.076741 0.6508,-2.106629 -0.6502,-4.170062 -1.3593,-2.17373 -5.3197,-3.397208 -2.7808,-0.859038 -5.0498,-1.283061 -2.269,-0.424022 -5.0497,-1.28306 -2.9493,-0.911101 -4.6976,-3.020427 -1.8327,-2.135356 -0.5051,-6.4328789 1.2756,-4.1289922 5.9971,-5.07037604 4.7216,-0.94138383 11.7998,1.24525864 7.2468,2.2387053 12.1055,6.2319405 4.7744,3.9672038 6.4865,9.4806858 1.6539,5.403185 -0.4547,12.228662 z"
           style="font-family:'Cherry Bomb One';-inkscape-font-specification:'Cherry Bomb One, Normal';fill:#000000"
           id="path65003" />
        <path
           d="m 1516.464,-24.939317 q -0.062,6.614293 -2.6661,11.61731 -2.6917,4.9140042 -7.2158,7.6941679 -4.6114,2.6911509 -10.5201,2.6360607 -5.7324,-0.053446 -10.5574,-2.8325764 -4.8242,-2.8673214 -7.6892,-7.7449362 -2.8643,-4.965806 -2.8051,-11.315526 0.055,-5.908768 2.4757,-10.119715 2.4206,-4.210946 6.1452,-6.381176 3.6372,-2.259243 7.694,-2.22142 4.0567,0.03782 6.6852,1.914492 2.5402,1.875847 3.9233,4.887482 1.2957,2.922623 1.7055,6.277975 0.4097,3.355353 0.1163,6.439556 -0.3815,3.083381 -1.1068,5.193376 2.5723,-1.563585 3.5646,-3.935686 0.905,-2.461113 0.8414,-5.107652 -0.1508,-2.735552 -0.5712,-4.944427 -0.5919,-2.739663 0.3065,-4.495252 0.8983,-1.755589 2.8393,-1.82569 1.5883,-0.07339 3.1642,1.176078 1.5767,1.161277 2.6944,4.258636 1.0295,3.096537 0.9761,8.828923 z m -24.5721,5.680185 q 1.4193,-0.86875 2.0523,-2.538615 0.5447,-1.670687 0.384,-3.347952 -0.16,-1.765456 -0.943,-2.919334 -0.7822,-1.242068 -2.1932,-1.255223 -1.4993,-0.01398 -2.6573,1.21 -1.2453,1.134966 -1.2692,3.692493 -0.023,2.469335 1.5521,3.806994 1.4869,1.336837 3.0743,1.351637 z"
           style="font-family:'Cherry Bomb One';-inkscape-font-specification:'Cherry Bomb One, Normal';fill:#000000"
           id="path65005" />
      </g>
      <g
         aria-label="Piggy Rescue"
         id="text6475"
         style="font-size:88.1944px;line-height:1.25;letter-spacing:9.26042px;fill:#ffffff;stroke:#000000;stroke-width:2.065"
         transform="rotate(0.78239796,-8678.649,-86558.846)">
        <path
           d="m 1142.6101,-30.099281 q -0.1487,-3.965961 2.3146,-6.529507 2.5514,-2.56685 6.8204,-4.050768 4.357,-1.487223 9.5403,-2.122863 5.1833,-0.635641 10.295,-0.827315 5.993,-0.22472 11.7811,1.146857 5.7914,1.459711 10.4999,4.636899 4.7999,3.262016 7.7269,8.359385 2.9271,5.097369 3.1948,12.236098 0.271,7.226862 -2.5074,13.1559644 -2.7751,6.0172351 -8.1952,9.7507307 -5.4202,3.7334955 -13.0877,4.0210058 -6.8744,0.2577679 -11.8891,-1.672347 -5.0147,-1.9301149 -8.323,-5.424576 -3.2168,-3.40963329 -4.8803,-7.7600761 -1.6602,-4.2623104 -1.7406,-8.7603708 0.01,-4.501365 1.4487,-8.438678 -2.0986,0.519976 -4.3019,0.602594 -2.2001,0.17075 -4.1687,-0.549738 -1.8772,-0.635661 -3.1838,-2.528309 -1.2151,-1.80782 -1.344,-5.244986 z m 25.2786,15.114787 q 0.1189,3.172768 2.4963,5.3782896 2.4688,2.2903491 5.5534,2.174684 3.1728,-0.1189698 5.375,-2.5844686 2.2937,-2.380672 2.1747,-5.55344 -0.119,-3.172769 -2.5878,-5.463118 -2.3773,-2.205521 -5.5501,-2.086551 -3.0846,0.115665 -5.3783,2.496336 -2.2022,2.465499 -2.0832,5.638268 z"
           style="font-family:'Cherry Bomb One';-inkscape-font-specification:'Cherry Bomb One, Normal'"
           id="path64864" />
        <path
           d="m 1192.3088,18.192222 q -1.2633,-4.132763 0.8121,-7.902731 2.1598,-3.795749 6.4612,-5.1105824 2.8677,-0.8765556 5.5316,-0.3075124 2.6897,0.6533853 4.7095,2.433783 2.1299,1.8389588 2.9807,4.6222478 0.825,2.698947 0.061,5.33012 -0.6534,2.689733 -2.5181,4.735295 -1.8648,2.045562 -4.7324,2.922117 -2.8676,0.876556 -5.6417,0.248952 -2.6898,-0.653386 -4.8197,-2.492344 -2.0197,-1.780398 -2.8447,-4.479345 z m -40.9059,12.503808 q -1.0313,-3.373684 0.393,-5.65349 1.45,-2.195464 5.2336,-3.997568 3.8937,-1.743543 10.1936,-3.761464 6.3257,-1.933578 10.5288,-2.665016 4.2289,-0.647095 6.6,0.472563 2.4555,1.093878 3.4867,4.467562 1.0313,3.373684 -0.4187,5.569148 -1.34,2.254025 -5.2079,4.08191 -3.868,1.827885 -10.1936,3.761463 -6.2999,2.017921 -10.5288,2.665017 -4.1445,0.621314 -6.6,-0.472564 -2.4555,-1.093878 -3.4867,-4.467561 z"
           style="font-family:'Cherry Bomb One';-inkscape-font-specification:'Cherry Bomb One, Normal'"
           id="path64866" />
        <path
           d="m 1155.0655,76.43544 q -2.5623,-4.222208 -2.6423,-8.093909 -0.1554,-3.825945 2.6342,-5.518916 2.8651,-1.738727 5.9584,-0.211516 3.0932,1.527212 4.6406,5.436898 1.9134,4.512859 5.0119,7.068572 3.0688,2.676865 5.6213,1.953115 -1.4106,-0.794542 -3.1442,-2.63111 -1.7335,-1.836568 -3.335,-4.475448 -3.1114,-5.126966 -3.754,-9.585724 -0.5214,-4.429118 0.6101,-8.004413 1.2069,-3.621051 3.3263,-6.248422 2.2407,-2.59773 4.5779,-4.016165 6.1826,-3.75199 12.0062,-3.675444 5.8695,0.151941 10.5725,2.971829 4.7031,2.819888 7.357,7.192889 0.8693,1.432535 1.8328,3.530114 1.0846,2.127219 1.577,3.788534 2.2509,-0.540727 4.2809,0.08431 2.0757,0.70044 3.9517,3.791699 1.6472,2.714276 0.8604,5.667693 -0.7113,2.907661 -3.2374,5.884964 -2.4507,2.931547 -6.0214,5.717481 -3.4953,2.740178 -7.6124,5.135604 -3.996,2.425067 -7.7685,4.198615 -7.4694,3.50134 -14.4724,3.521487 -7.0029,0.02015 -12.904,-3.413848 -5.8553,-3.358599 -9.9276,-10.068894 z m 26.6492,-12.355555 q 1.4185,2.337294 4.205,3.019028 2.7865,0.681733 5.0484,-0.690946 2.3373,-1.418435 3.019,-4.204944 0.6817,-2.786508 -0.7367,-5.123802 -1.4184,-2.337293 -4.2049,-3.019027 -2.7408,-0.606337 -5.0781,0.812098 -2.2619,1.372679 -2.9894,4.083791 -0.6817,2.786509 0.7367,5.123802 z"
           style="font-family:'Cherry Bomb One';-inkscape-font-specification:'Cherry Bomb One, Normal'"
           id="path64868" />
        <path
           d="m 1196.1639,126.63168 q -3.7586,-3.20388 -5.0505,-6.85457 -1.3491,-3.58357 0.7678,-6.06699 2.174,-2.55054 5.5904,-2.07204 3.4164,0.47849 6.1133,3.70442 3.2339,3.68363 6.9782,5.13696 3.7542,1.57766 5.9503,0.0889 -1.5888,-0.31132 -3.8114,-1.51055 -2.2226,-1.19922 -4.5718,-3.20165 -4.5641,-3.89043 -6.5745,-7.92179 -1.886,-4.04127 -1.9346,-7.79103 0.01,-3.816883 1.1958,-6.97694 1.3114,-3.169965 3.085,-5.250668 4.6914,-5.503792 10.2444,-7.260054 5.6202,-1.699049 10.9709,-0.498842 5.3508,1.200207 9.2437,4.518514 1.2753,1.087031 2.8487,2.775907 1.6978,1.678968 2.687,3.101596 1.9673,-1.220288 4.0908,-1.264379 2.1907,0.01312 4.9426,2.35882 2.4163,2.059639 2.5969,5.110717 0.2377,2.983959 -1.2255,6.603949 -1.406,3.55286 -3.9211,7.31923 -2.4579,3.69924 -5.6145,7.26648 -3.0323,3.55733 -6.0568,6.42588 -5.992,5.66998 -12.6343,7.88841 -6.6423,2.21842 -13.3233,0.81141 -6.6138,-1.3498 -12.5875,-6.44169 z m 21.4207,-20.09967 q 2.0807,1.77357 4.9403,1.54571 2.8597,-0.22787 4.576,-2.24145 1.7736,-2.0807 1.5457,-4.94033 -0.2278,-2.859629 -2.3085,-4.633206 -2.0807,-1.773578 -4.9404,-1.545712 -2.7925,0.285079 -4.5661,2.365781 -1.7163,2.013583 -1.5556,4.815997 0.2279,2.85963 2.3086,4.63321 z"
           style="font-family:'Cherry Bomb One';-inkscape-font-specification:'Cherry Bomb One, Normal'"
           id="path64870" />
        <path
           d="m 1246.8015,157.25964 q -2.6923,-1.10538 -4.7569,-2.81105 -2.0164,-1.59059 -2.8485,-3.74365 -0.8656,-2.07148 0.1058,-4.43747 1.1724,-2.8555 4.386,-3.25216 3.2137,-0.39666 6.4102,1.10636 3.5562,1.55543 5.6818,1.95141 2.2406,0.3479 3.8372,-0.52202 -7.5059,-3.08167 -11.0888,-7.12679 -3.5828,-4.04511 -3.7131,-9.53291 -0.049,-5.45431 2.9994,-12.87862 1.6413,-3.9977 3.797,-6.92617 2.1892,-3.01005 4.788,-4.23119 2.7139,-1.26923 5.7326,-0.0299 4.0793,1.67482 4.8212,4.74424 0.7754,2.98782 -0.4975,6.08808 -1.1389,2.77392 -2.3258,5.43276 -1.1535,2.57724 -1.7461,4.71738 -0.5927,2.14013 -0.034,3.79937 0.5581,1.65924 2.8425,2.59714 2.2845,0.9379 3.8475,0.14957 1.5631,-0.78834 2.6452,-2.72749 1.0822,-1.93916 2.039,-4.50182 0.9903,-2.64424 2.1292,-5.41816 1.4068,-3.4266 4.0245,-4.92599 2.7328,-1.54748 6.7305,0.0938 3.1003,1.27286 4.0578,4.04943 1.0725,2.72847 0.515,6.40845 -0.524,3.5984 -2.1653,7.59611 -2.7467,6.69003 -6.8614,12.53238 -3.9997,5.79425 -9.3399,9.51271 -5.2587,3.75197 -11.8011,4.59338 -6.4609,0.8749 -14.2115,-2.30725 z"
           style="font-family:'Cherry Bomb One';-inkscape-font-specification:'Cherry Bomb One, Normal'"
           id="path64872" />
        <path
           d="m 1341.9258,162.10302 q -3.9378,0.49466 -6.8817,-1.71326 -2.8675,-2.30642 -4.8938,-6.40738 -2.0372,-4.18846 -3.2983,-9.27441 -1.1736,-5.09694 -1.8111,-10.17232 -0.7475,-5.95046 0.1131,-11.83625 0.9481,-5.89679 3.7018,-10.86485 2.8301,-5.06656 7.6522,-8.42782 4.8222,-3.36126 11.9102,-4.25165 7.1756,-0.901378 13.3247,1.34835 6.2367,2.23873 10.4295,7.31196 4.1928,5.07322 5.1492,12.6863 0.8354,6.65051 -0.5617,11.80371 -1.3206,5.0547 -4.1626,8.61166 1.5654,1.84777 2.6388,4.02401 1.0734,2.17624 1.3372,4.2764 0.3078,2.45019 -0.763,4.54022 -1.0817,2.00253 -3.05,3.31642 -1.8807,1.30291 -4.1559,1.58871 -1.9252,0.24184 -3.6647,-0.16185 -1.7396,-0.4037 -3.9391,-1.63848 -2.0136,-1.16927 -3.6995,-3.26856 -1.6969,-2.1868 -2.8577,-4.35205 -3.1067,0.0347 -5.9623,-0.76212 0.7013,2.0452 0.9761,4.23287 0.3623,2.17667 -0.1834,4.20075 -0.4692,1.92558 -2.2405,3.39251 -1.6947,1.36842 -5.1075,1.79713 z m 11.9074,-26.91761 q 3.1502,-0.39572 5.1506,-2.86919 2.0768,-2.57197 1.7031,-5.5472 -0.3847,-3.06273 -3.0222,-4.95361 -2.561,-1.98937 -5.7113,-1.59364 -3.1502,0.39573 -5.2271,2.9677 -2.0003,2.47347 -1.6156,5.5362 0.3737,2.97523 2.9347,4.9646 2.6375,1.89087 5.7878,1.49514 z"
           style="font-family:'Cherry Bomb One';-inkscape-font-specification:'Cherry Bomb One, Normal'"
           id="path64874" />
        <path
           d="m 1410.8007,143.56246 q -5.9981,2.78852 -11.6349,2.58854 -5.5939,-0.31713 -10.0493,-3.20604 -4.4126,-3.00607 -6.9036,-8.36435 -2.4168,-5.19832 -1.9825,-10.74949 0.5143,-5.58836 3.6859,-10.27242 3.2516,-4.72125 9.0098,-7.39823 5.3582,-2.49108 10.2009,-2.11643 4.8426,0.37465 8.4035,2.80406 3.6037,2.31226 5.314,5.99107 1.7103,3.67882 1.1463,6.85883 -0.6012,3.10004 -2.7255,5.64376 -2.0814,2.42656 -4.9345,4.23928 -2.8532,1.81273 -5.7638,2.87411 -2.9478,0.98142 -5.1647,1.23395 2.5178,1.65001 5.0861,1.52586 2.6111,-0.24131 4.9731,-1.43669 2.4049,-1.31254 4.2183,-2.64192 2.219,-1.71241 4.1903,-1.65627 1.9712,0.0561 2.8692,1.77839 0.7492,1.40235 0.2988,3.36241 -0.3704,1.92288 -2.6862,4.26386 -2.3529,2.261 -7.5512,4.67772 z m -15.6944,-19.74176 q 1.3946,0.90779 3.1744,0.76118 1.7426,-0.22658 3.1877,-1.09295 1.5251,-0.90356 2.2302,-2.10667 0.785,-1.24029 0.1901,-2.51988 -0.632,-1.35956 -2.235,-1.8787 -1.5602,-0.6363 -3.8795,0.44193 -2.2393,1.04105 -2.7696,3.03829 -0.5676,1.91727 0.1017,3.3568 z"
           style="font-family:'Cherry Bomb One';-inkscape-font-specification:'Cherry Bomb One, Normal'"
           id="path64876" />
        <path
           d="m 1450.334,117.86672 q -5.9004,5.04192 -11.0485,6.07681 -5.1481,1.03489 -7.7836,-2.04937 -1.8334,-2.14557 -1.2848,-4.35449 0.5583,-2.33327 2.5698,-4.0521 1.6092,-1.37507 2.8051,-1.46892 1.2629,-0.15114 2.3247,-0.1304 1.0618,0.0207 1.9335,-0.72409 1.408,-1.20318 0.5486,-2.20892 -1.1459,-1.34098 -3.2707,-0.56936 -2.0578,0.71434 -5.3212,1.64686 -4.5362,1.20801 -7.663,0.39972 -3.1842,-0.87533 -5.0176,-3.02091 -2.1772,-2.54786 -2.3149,-6.37449 -0.1377,-3.826619 1.8872,-8.109133 2.092,-4.339809 6.7184,-8.293134 3.8888,-3.323085 7.8898,-4.885849 4.001,-1.562764 7.4156,-1.232342 3.3572,0.263373 5.248,2.475994 1.7761,2.078523 1.3518,4.2972 -0.4243,2.218677 -2.5698,4.052103 -1.2069,1.031302 -2.2309,1.326297 -1.0143,0.170651 -1.9042,0.351056 -0.8229,0.123111 -1.8286,0.98253 -0.5364,0.458356 -0.5949,1.204419 -0.1158,0.679013 0.3425,1.215405 0.3438,0.402295 1.0228,0.518117 0.679,0.115822 1.7128,-0.303516 2.6514,-1.105641 5.5126,-1.694397 2.8709,-0.7131 5.5772,-0.125469 2.716,0.463288 4.8932,3.011154 3.7242,4.358195 1.7541,10.333975 -1.9701,5.97579 -8.675,11.70525 z"
           style="font-family:'Cherry Bomb One';-inkscape-font-specification:'Cherry Bomb One, Normal'"
           id="path64878" />
        <path
           d="m 1486.0219,77.404306 q -3.2122,4.642084 -8.1578,7.275439 -5.0188,2.584309 -10.6936,2.50128 -5.6257,-0.156328 -10.61,-3.491464 -5.3508,-3.580367 -7.4215,-8.573882 -2.0949,-5.11586 -1.3765,-10.471545 0.6943,-5.47803 3.7351,-10.022562 3.139,-4.69113 7.3256,-6.983325 4.1134,-2.34124 8.2473,-2.334213 4.1096,-0.115318 7.1149,1.895573 2.4921,1.667568 2.9281,4.187768 0.4118,2.397854 -1.7462,5.623006 -1.1772,1.759174 -2.4744,2.270644 -1.3216,0.389126 -2.6426,0.460263 -1.2719,-0.0022 -2.5202,0.436009 -1.2725,0.315827 -2.3515,1.928403 -1.2752,1.905772 -0.9367,4.25458 0.3875,2.275509 2.5864,3.746893 2.2723,1.52043 4.5236,1.010581 2.1779,-0.558896 3.5022,-2.537966 1.0299,-1.539277 1.1296,-2.639842 0.026,-1.149611 -0.2409,-2.177417 -0.2182,-1.101105 -0.02,-2.348268 0.1245,-1.296208 1.3506,-3.128681 2.1581,-3.225152 4.8981,-3.514023 2.7159,-0.411216 4.6217,0.863983 2.4188,1.618522 3.3426,4.995677 0.9238,3.377155 0.011,7.75408 -0.9858,4.327879 -4.1248,9.019009 z"
           style="font-family:'Cherry Bomb One';-inkscape-font-specification:'Cherry Bomb One, Normal'"
           id="path64880" />
        <path
           d="m 1508.3056,29.908139 q -1.9263,6.235621 -6.3916,9.933071 -4.5235,3.587154 -10.7817,4.423064 -6.3164,0.725613 -13.5632,-1.513093 -7.0783,-2.186642 -10.4462,-5.627046 -3.3418,-3.524669 -2.0663,-7.653661 0.9111,-2.94928 2.4751,-4.127644 1.5901,-1.262628 3.4316,-1.24759 1.7832,-0.09526 3.637,0.477434 2.3595,0.72888 4.699,1.820853 2.3656,1.007708 5.1464,1.866746 3.9604,1.223479 6.3089,0.195133 2.2902,-1.138642 2.8889,-3.076741 0.6508,-2.106629 -0.6502,-4.170062 -1.3593,-2.17373 -5.3197,-3.397208 -2.7808,-0.859038 -5.0498,-1.283061 -2.269,-0.424022 -5.0497,-1.28306 -2.9493,-0.911101 -4.6976,-3.020427 -1.8327,-2.135356 -0.5051,-6.4328789 1.2756,-4.1289922 5.9971,-5.07037604 4.7216,-0.94138383 11.7998,1.24525864 7.2468,2.2387053 12.1055,6.2319405 4.7744,3.9672038 6.4865,9.4806858 1.6539,5.403185 -0.4547,12.228662 z"
           style="font-family:'Cherry Bomb One';-inkscape-font-specification:'Cherry Bomb One, Normal'"
           id="path64882" />
        <path
           d="m 1516.464,-24.939317 q -0.062,6.614293 -2.6661,11.61731 -2.6917,4.9140042 -7.2158,7.6941679 -4.6114,2.6911509 -10.5201,2.6360607 -5.7324,-0.053446 -10.5574,-2.8325764 -4.8242,-2.8673214 -7.6892,-7.7449362 -2.8643,-4.965806 -2.8051,-11.315526 0.055,-5.908768 2.4757,-10.119715 2.4206,-4.210946 6.1452,-6.381176 3.6372,-2.259243 7.694,-2.22142 4.0567,0.03782 6.6852,1.914492 2.5402,1.875847 3.9233,4.887482 1.2957,2.922623 1.7055,6.277975 0.4097,3.355353 0.1163,6.439556 -0.3815,3.083381 -1.1068,5.193376 2.5723,-1.563585 3.5646,-3.935686 0.905,-2.461113 0.8414,-5.107652 -0.1508,-2.735552 -0.5712,-4.944427 -0.5919,-2.739663 0.3065,-4.495252 0.8983,-1.755589 2.8393,-1.82569 1.5883,-0.07339 3.1642,1.176078 1.5767,1.161277 2.6944,4.258636 1.0295,3.096537 0.9761,8.828923 z m -24.5721,5.680185 q 1.4193,-0.86875 2.0523,-2.538615 0.5447,-1.670687 0.384,-3.347952 -0.16,-1.765456 -0.943,-2.919334 -0.7822,-1.242068 -2.1932,-1.255223 -1.4993,-0.01398 -2.6573,1.21 -1.2453,1.134966 -1.2692,3.692493 -0.023,2.469335 1.5521,3.806994 1.4869,1.336837 3.0743,1.351637 z"
           style="font-family:'Cherry Bomb One';-inkscape-font-specification:'Cherry Bomb One, Normal'"
           id="path64884" />
      </g>
    </g>
    <image
       width="268.08478"
       height="268.08478"
       preserveAspectRatio="none"
       xlink:href="promo-images/pig-rescue-logo-idea.png"
       id="image40650"
       x="23.682158"
       y="-47.784695"
       style="stroke-width:1.42119" />
  </g>
</svg>
