{
	"asset":{
		"generator":"Khronos glTF Blender I/O v3.5.30",
		"version":"2.0"
	},
	"scene":0,
	"scenes":[
		{
			"name":"Scene",
			"nodes":[
				0
			]
		}
	],
	"nodes":[
		{
			"mesh":0,
			"name":"watchtower_stairs",
			"scale":[
				0.6711453199386597,
				0.671145498752594,
				0.671145498752594
			]
		}
	],
	"materials":[
		{
			"doubleSided":true,
			"name":"watch-tower",
			"normalTexture":{
				"index":0
			},
			"occlusionTexture":{
				"index":1
			},
			"pbrMetallicRoughness":{
				"baseColorTexture":{
					"index":2
				},
				"metallicRoughnessTexture":{
					"index":1
				}
			}
		}
	],
	"meshes":[
		{
			"name":"Object_0.001",
			"primitives":[
				{
					"attributes":{
						"POSITION":0,
						"TEXCOORD_0":1,
						"TEXCOORD_1":2,
						"TEXCOORD_2":3,
						"TEXCOORD_3":4,
						"NORMAL":5
					},
					"indices":6,
					"material":0
				}
			]
		}
	],
	"textures":[
		{
			"sampler":0,
			"source":0
		},
		{
			"sampler":0,
			"source":1
		},
		{
			"sampler":0,
			"source":2
		}
	],
	"images":[
		{
			"mimeType":"image/png",
			"name":"Image_2",
			"uri":"textures/Image_2.png"
		},
		{
			"mimeType":"image/png",
			"name":"Image_1",
			"uri":"textures/Image_1.png"
		},
		{
			"mimeType":"image/png",
			"name":"Image_0",
			"uri":"textures/Image_0.png"
		}
	],
	"accessors":[
		{
			"bufferView":0,
			"componentType":5126,
			"count":268,
			"max":[
				1.2712539434432983,
				3.9528093338012695,
				4.748504638671875
			],
			"min":[
				0.48810017108917236,
				0.002052783966064453,
				1.6302716732025146
			],
			"type":"VEC3"
		},
		{
			"bufferView":1,
			"componentType":5126,
			"count":268,
			"type":"VEC2"
		},
		{
			"bufferView":2,
			"componentType":5126,
			"count":268,
			"type":"VEC2"
		},
		{
			"bufferView":3,
			"componentType":5126,
			"count":268,
			"type":"VEC2"
		},
		{
			"bufferView":4,
			"componentType":5126,
			"count":268,
			"type":"VEC2"
		},
		{
			"bufferView":5,
			"componentType":5126,
			"count":268,
			"type":"VEC3"
		},
		{
			"bufferView":6,
			"componentType":5123,
			"count":402,
			"type":"SCALAR"
		}
	],
	"bufferViews":[
		{
			"buffer":0,
			"byteLength":3216,
			"byteOffset":0,
			"target":34962
		},
		{
			"buffer":0,
			"byteLength":2144,
			"byteOffset":3216,
			"target":34962
		},
		{
			"buffer":0,
			"byteLength":2144,
			"byteOffset":5360,
			"target":34962
		},
		{
			"buffer":0,
			"byteLength":2144,
			"byteOffset":7504,
			"target":34962
		},
		{
			"buffer":0,
			"byteLength":2144,
			"byteOffset":9648,
			"target":34962
		},
		{
			"buffer":0,
			"byteLength":3216,
			"byteOffset":11792,
			"target":34962
		},
		{
			"buffer":0,
			"byteLength":804,
			"byteOffset":15008,
			"target":34963
		}
	],
	"samplers":[
		{
			"magFilter":9729,
			"minFilter":9987
		}
	],
	"buffers":[
		{
			"byteLength":15812,
			"uri":"watch_stair.bin"
		}
	]
}
