{
	"asset":{
		"generator":"Khronos glTF Blender I/O v3.5.30",
		"version":"2.0"
	},
	"scene":0,
	"scenes":[
		{
			"name":"Scene",
			"nodes":[
				0
			]
		}
	],
	"nodes":[
		{
			"mesh":0,
			"name":"watchtower",
			"scale":[
				0.6711453199386597,
				0.671145498752594,
				0.671145498752594
			]
		}
	],
	"materials":[
		{
			"doubleSided":true,
			"name":"watch-tower",
			"normalTexture":{
				"index":0
			},
			"occlusionTexture":{
				"index":1
			},
			"pbrMetallicRoughness":{
				"baseColorTexture":{
					"index":2
				},
				"metallicRoughnessTexture":{
					"index":1
				}
			}
		}
	],
	"meshes":[
		{
			"name":"Object_0",
			"primitives":[
				{
					"attributes":{
						"POSITION":0,
						"TEXCOORD_0":1,
						"TEXCOORD_1":2,
						"TEXCOORD_2":3,
						"TEXCOORD_3":4,
						"NORMAL":5
					},
					"indices":6,
					"material":0
				}
			]
		}
	],
	"textures":[
		{
			"sampler":0,
			"source":0
		},
		{
			"sampler":0,
			"source":1
		},
		{
			"sampler":0,
			"source":2
		}
	],
	"images":[
		{
			"mimeType":"image/png",
			"name":"Image_2",
			"uri":"textures/Image_2.png"
		},
		{
			"mimeType":"image/png",
			"name":"Image_1",
			"uri":"textures/Image_1.png"
		},
		{
			"mimeType":"image/png",
			"name":"Image_0",
			"uri":"textures/Image_0.png"
		}
	],
	"accessors":[
		{
			"bufferView":0,
			"componentType":5126,
			"count":2430,
			"max":[
				1.8941383361816406,
				7.984813213348389,
				1.920526385307312
			],
			"min":[
				-1.9161560535430908,
				-0.004248499870300293,
				-1.8132752180099487
			],
			"type":"VEC3"
		},
		{
			"bufferView":1,
			"componentType":5126,
			"count":2430,
			"type":"VEC2"
		},
		{
			"bufferView":2,
			"componentType":5126,
			"count":2430,
			"type":"VEC2"
		},
		{
			"bufferView":3,
			"componentType":5126,
			"count":2430,
			"type":"VEC2"
		},
		{
			"bufferView":4,
			"componentType":5126,
			"count":2430,
			"type":"VEC2"
		},
		{
			"bufferView":5,
			"componentType":5126,
			"count":2430,
			"type":"VEC3"
		},
		{
			"bufferView":6,
			"componentType":5123,
			"count":4092,
			"type":"SCALAR"
		}
	],
	"bufferViews":[
		{
			"buffer":0,
			"byteLength":29160,
			"byteOffset":0,
			"target":34962
		},
		{
			"buffer":0,
			"byteLength":19440,
			"byteOffset":29160,
			"target":34962
		},
		{
			"buffer":0,
			"byteLength":19440,
			"byteOffset":48600,
			"target":34962
		},
		{
			"buffer":0,
			"byteLength":19440,
			"byteOffset":68040,
			"target":34962
		},
		{
			"buffer":0,
			"byteLength":19440,
			"byteOffset":87480,
			"target":34962
		},
		{
			"buffer":0,
			"byteLength":29160,
			"byteOffset":106920,
			"target":34962
		},
		{
			"buffer":0,
			"byteLength":8184,
			"byteOffset":136080,
			"target":34963
		}
	],
	"samplers":[
		{
			"magFilter":9729,
			"minFilter":9987
		}
	],
	"buffers":[
		{
			"byteLength":144264,
			"uri":"watch_tower2.bin"
		}
	]
}
