{
	"asset":{
		"generator":"Khronos glTF Blender I/O v3.5.30",
		"version":"2.0"
	},
	"extensionsUsed":[
		"KHR_materials_specular",
		"KHR_materials_ior"
	],
	"scene":0,
	"scenes":[
		{
			"name":"Scene",
			"nodes":[
				0
			]
		}
	],
	"nodes":[
		{
			"mesh":0,
			"name":"barrel_low"
		}
	],
	"materials":[
		{
			"doubleSided":true,
			"extensions":{
				"KHR_materials_specular":{
					"specularColorFactor":[
						2.371357614441398,
						2.371357614441398,
						2.371357614441398
					]
				},
				"KHR_materials_ior":{
					"ior":1.4500000476837158
				}
			},
			"name":"barrel.001",
			"normalTexture":{
				"index":0
			},
			"pbrMetallicRoughness":{
				"baseColorTexture":{
					"index":1
				},
				"metallicRoughnessTexture":{
					"index":2
				}
			}
		}
	],
	"meshes":[
		{
			"name":"barrel_low",
			"primitives":[
				{
					"attributes":{
						"POSITION":0,
						"TEXCOORD_0":1,
						"NORMAL":2
					},
					"indices":3,
					"material":0
				}
			]
		}
	],
	"textures":[
		{
			"sampler":0,
			"source":0
		},
		{
			"sampler":0,
			"source":1
		},
		{
			"sampler":0,
			"source":2
		}
	],
	"images":[
		{
			"mimeType":"image/png",
			"name":"barrel 2.0new_barrel_NormaOpenGLl.png",
			"uri":"textures/barrel%202_0new_barrel_NormaOpenGLl_png.png"
		},
		{
			"mimeType":"image/png",
			"name":"barrel 2.0new_barrel_BaseColor.png",
			"uri":"textures/barrel%202_0new_barrel_BaseColor_png.png"
		},
		{
			"mimeType":"image/png",
			"name":"barrel 2.0new_barrel_Metallic.png-barrel 2.0new_barrel_Roughness.png",
			"uri":"textures/barrel%202_0new_barrel_Metallic_png-barrel%202_0new_barrel_Roughness_png.png"
		}
	],
	"accessors":[
		{
			"bufferView":0,
			"componentType":5126,
			"count":418,
			"max":[
				0.25911104679107666,
				0.6525071263313293,
				0.27466437220573425
			],
			"min":[
				-0.2591109573841095,
				-3.5998194647390847e-08,
				-0.2526976764202118
			],
			"type":"VEC3"
		},
		{
			"bufferView":1,
			"componentType":5126,
			"count":418,
			"type":"VEC2"
		},
		{
			"bufferView":2,
			"componentType":5126,
			"count":418,
			"type":"VEC3"
		},
		{
			"bufferView":3,
			"componentType":5123,
			"count":1794,
			"type":"SCALAR"
		}
	],
	"bufferViews":[
		{
			"buffer":0,
			"byteLength":5016,
			"byteOffset":0,
			"target":34962
		},
		{
			"buffer":0,
			"byteLength":3344,
			"byteOffset":5016,
			"target":34962
		},
		{
			"buffer":0,
			"byteLength":5016,
			"byteOffset":8360,
			"target":34962
		},
		{
			"buffer":0,
			"byteLength":3588,
			"byteOffset":13376,
			"target":34963
		}
	],
	"samplers":[
		{
			"magFilter":9729,
			"minFilter":9987
		}
	],
	"buffers":[
		{
			"byteLength":16964,
			"uri":"stylized-barrel-low.bin"
		}
	]
}
