<?xml version="1.0" encoding="UTF-8" standalone="no"?>
<svg
   viewBox="0 0 377.95275 377.95274"
   version="1.1"
   id="svg6"
   sodipodi:docname="penpot isotype_B.svg"
   width="100mm"
   height="100mm"
   inkscape:version="1.1.2 (b8e25be833, 2022-02-05)"
   xmlns:inkscape="http://www.inkscape.org/namespaces/inkscape"
   xmlns:sodipodi="http://sodipodi.sourceforge.net/DTD/sodipodi-0.dtd"
   xmlns="http://www.w3.org/2000/svg"
   xmlns:svg="http://www.w3.org/2000/svg">
  <defs
     id="defs10" />
  <sodipodi:namedview
     id="namedview8"
     pagecolor="#ffffff"
     bordercolor="#666666"
     borderopacity="1.0"
     inkscape:pageshadow="2"
     inkscape:pageopacity="0.0"
     inkscape:pagecheckerboard="0"
     showgrid="false"
     units="mm"
     inkscape:zoom="1.7584562"
     inkscape:cx="172.02589"
     inkscape:cy="190.79235"
     inkscape:window-width="1920"
     inkscape:window-height="1018"
     inkscape:window-x="-1926"
     inkscape:window-y="-6"
     inkscape:window-maximized="1"
     inkscape:current-layer="svg6"
     inkscape:document-units="mm" />
  <g
     id="Capa_2"
     data-name="Capa 2"
     transform="matrix(4.5057521,0,0,4.5057521,46.369324,0.77111274)"
     style="stroke-width:0.221939">
    <g
       id="Capa_1-2"
       data-name="Capa 1"
       style="stroke-width:0.221939">
      <path
         d="M 59.69,28.71 V 66.28 L 33.5,78.65 V 41.09 Z m -56,0 26.16,12.38 V 78.65 L 3.66,66.28 Z m 4.1,-5.77 V 26.6 L 3.62,24.66 Z m 47.87,0 4.15,1.68 -4.15,1.93 z M 32.89,17.75 h 4.67 v 17.39 l -4.67,2.2 z m -7.14,0 h 4.71 V 37.3 l -4.71,-2.2 z m 22.3,-3.39 h 4.67 V 28 l -4.67,2.21 z m -7.1,0 h 4.72 v 17 L 41,33.51 Z m -23.18,0 h 4.67 v 19.15 l -4.67,-2.2 z m -7.15,0 h 4.72 V 30.17 L 10.62,28 Z m 22.58,-3.79 3.39,4.8 H 26.67 L 30,10.66 Z M 48.4,7.18 51.8,12 h -9.92 l 3.35,-4.71 z m -30.28,0 3.39,4.82 H 11.59 L 14.94,7.29 Z M 16.53,0 7.72,12.38 v 6.95 L 0,23 v 0 45.57 l 29.85,14.09 1.8,0.88 1.81,-0.88 29.84,-14.09 v -45.63 0 l -7.63,-3.66 v -6.9 L 55.41,11.98 46.86,0 38,12.38 31.61,3.38 25.26,12.28 25.08,12 Z"
         id="path2"
         style="stroke-width:0.221939" />
    </g>
  </g>
</svg>
