# Blender 3.5.1
# www.blender.org
o Cube
v -0.415340 -0.303673 -0.049665
v -0.337403 0.285304 -0.049665
v 0.771934 -0.308049 -0.038878
v 0.722998 -0.014696 -0.049665
v 0.219454 -0.314696 -0.049665
v 0.219454 0.285304 -0.049665
v 0.018792 -0.014696 0.050335
v 0.018792 -0.014696 -0.049665
v -0.058974 -0.314696 -0.049665
v -0.359967 -0.014696 0.050335
v -0.058974 0.285304 -0.049665
v -0.359967 -0.014696 -0.049665
v 0.219454 0.285304 0.041115
v 0.194839 0.248502 0.050335
v 0.312382 0.285304 0.050335
v -0.095898 0.248502 0.050335
v -0.058974 0.285304 0.041115
v -0.151901 0.285304 0.050335
v 0.776312 -0.257754 0.050335
v 0.771934 -0.308049 0.046856
v 0.219454 -0.314696 0.036069
v 0.181367 -0.257754 0.050335
v 0.075672 -0.314696 0.050335
v 0.735164 0.285304 0.050335
v 0.735164 0.285304 -0.049665
v 0.773423 0.269048 -0.049665
v 0.722998 -0.014696 0.048124
v 0.700658 -0.014696 0.050335
v 0.724927 -0.023489 0.050335
v 0.752651 0.277874 0.050335
v 0.773423 0.269048 0.048124
v -0.706602 -0.014696 0.050335
v -0.723688 -0.025939 -0.049665
v -0.723688 -0.003454 -0.049665
v -0.706602 -0.014696 -0.049665
v -0.337403 0.285304 0.048678
v -0.318503 0.285304 0.050335
v -0.713636 -0.010068 0.050335
v -0.723688 -0.003454 0.048678
v -0.723688 -0.010068 0.050335
v -0.369318 -0.277994 0.050335
v -0.415340 -0.303673 0.043566
v -0.087037 -0.286726 0.050335
v -0.058974 -0.314696 0.043566
v 0.009253 -0.314696 0.050335
v -0.723688 -0.025939 0.043566
v -0.706602 -0.014696 0.050335
v -0.723688 -0.010083 0.050335
vn -0.6693 -0.7430 -0.0000
vn 0.9846 -0.1750 -0.0000
vn -0.0000 -0.0000 1.0000
vn -0.0000 -1.0000 -0.0000
vn -0.0000 -0.0000 -1.0000
vn 0.3910 0.9204 -0.0000
vn 0.0087 -0.0145 -0.9999
vn -1.0000 -0.0000 -0.0000
vn 0.0120 -0.9999 -0.0000
vn -0.0000 1.0000 -0.0000
vn -0.0942 0.3008 0.9490
vn 0.0976 0.1486 0.9841
vn -0.0000 0.2430 0.9700
vn 0.0971 -0.1803 0.9788
vn -0.0083 -0.1658 0.9861
vn 0.0950 0.2623 0.9603
vn 0.0985 -0.0175 0.9950
vn 0.9841 0.1649 -0.0666
vn -0.5987 0.8010 -0.0000
vn -0.0868 0.1161 0.9894
vn -0.0935 -0.3218 0.9422
vn -0.1054 -0.3905 0.9146
vn -0.0075 -0.2423 0.9702
vn -0.1240 -0.1479 0.9812
vn -0.0309 -0.9995 -0.0000
vt 0.449299 0.994419
vt 0.453397 0.994419
vt 0.449299 0.986887
vt 0.451348 0.986887
vt 0.449299 0.990653
vt 0.453397 0.990653
vt 0.451348 0.992010
vt 0.451348 0.992010
vt 0.449299 0.992536
vt 0.451348 0.994572
vt 0.453397 0.992536
vt 0.451348 0.994572
vt 0.453397 0.990653
vt 0.453397 0.990820
vt 0.453146 0.990820
vt 0.453397 0.990025
vt 0.453146 0.992786
vt 0.453397 0.992536
vt 0.453397 0.993165
vt 0.449688 0.986887
vt 0.449299 0.986887
vt 0.449299 0.990653
vt 0.449299 0.990911
vt 0.449688 0.990911
vt 0.449299 0.991626
vt 0.453397 0.987166
vt 0.453397 0.987166
vt 0.453286 0.986887
vt 0.451348 0.986887
vt 0.451344 0.986887
vt 0.451348 0.987050
vt 0.451288 0.986887
vt 0.453346 0.987038
vt 0.453286 0.986887
vt 0.451348 0.996916
vt 0.451271 0.997032
vt 0.451391 0.997191
vt 0.451425 0.997032
vt 0.451348 0.996916
vt 0.453397 0.994419
vt 0.453397 0.994291
vt 0.451379 0.996964
vt 0.451425 0.997032
vt 0.451379 0.997032
vt 0.449494 0.994246
vt 0.449299 0.994419
vt 0.449490 0.992726
vt 0.449299 0.992536
vt 0.449299 0.992075
vt 0.451271 0.997032
vt 0.451320 0.997097
vt 0.451348 0.996916
vt 0.451389 0.997078
s 0
f 42/46/1 46/50/1 33/36/1 1/1/1
f 4/4/2 26/28/2 31/34/2 27/29/2
f 38/42/3 40/44/3 48/53/3 47/52/3 32/35/3
f 9/9/4 5/5/4 21/22/4 23/25/4 45/49/4 44/48/4
f 1/1/5 33/36/5 35/39/5 12/12/5 9/9/5
f 25/27/6 24/26/6 30/33/6 31/34/6 26/28/6
f 5/5/7 8/8/7 4/4/7 3/3/7
f 40/44/8 39/43/8 34/38/8 33/36/8 46/50/8 48/53/8
f 9/9/5 12/12/5 8/8/5 5/5/5
f 5/5/9 3/3/9 20/21/9 21/22/9
f 6/6/10 11/11/10 17/18/10 13/13/10
f 7/7/3 14/15/3 16/17/3 10/10/3
f 12/12/5 11/11/5 6/6/5 8/8/5
f 43/47/3 10/10/3 32/35/3 47/52/3 41/45/3
f 35/39/5 34/38/5 2/2/5 11/11/5 12/12/5
f 23/25/3 22/24/3 7/7/3 10/10/3 43/47/3 45/49/3
f 10/10/3 16/17/3 18/19/3 37/41/3 38/42/3 32/35/3
f 19/20/3 29/32/3 28/31/3 7/7/3 22/24/3
f 13/13/11 14/14/11 15/16/11
f 16/17/12 17/18/12 18/19/12
f 13/13/13 17/18/13 16/17/13 14/15/13
f 8/8/5 6/6/5 25/27/5 26/28/5 4/4/5
f 21/22/14 22/23/14 23/25/14
f 21/22/15 20/21/15 19/20/15 22/24/15
f 28/31/3 30/33/3 24/26/3 15/16/3 14/15/3 7/7/3
f 25/27/10 6/6/10 13/13/10 15/16/10 24/26/10
f 27/29/16 28/30/16 29/32/16
f 30/33/17 28/31/17 27/29/17 31/34/17
f 3/3/18 4/4/18 27/29/18 29/32/18 19/20/18 20/21/18
f 33/36/5 34/37/5 35/39/5
f 39/43/19 36/40/19 2/2/19 34/38/19
f 38/42/13 39/43/13 40/44/13
f 36/40/20 39/43/20 38/42/20 37/41/20
f 11/11/10 2/2/10 36/40/10 37/41/10 18/19/10 17/18/10
f 43/47/21 44/48/21 45/49/21
f 46/50/22 47/51/22 48/53/22
f 42/46/23 44/48/23 43/47/23 41/45/23
f 41/45/24 47/52/24 46/50/24 42/46/24
f 1/1/25 9/9/25 44/48/25 42/46/25
