{
	"asset":{
		"generator":"Khronos glTF Blender I/O v3.5.30",
		"version":"2.0"
	},
	"scene":0,
	"scenes":[
		{
			"name":"Scene",
			"nodes":[
				0
			]
		}
	],
	"nodes":[
		{
			"mesh":0,
			"name":"boat"
		}
	],
	"materials":[
		{
			"doubleSided":true,
			"name":"Object005",
			"normalTexture":{
				"index":0
			},
			"pbrMetallicRoughness":{
				"baseColorTexture":{
					"index":1
				},
				"metallicFactor":0,
				"metallicRoughnessTexture":{
					"index":2
				}
			}
		}
	],
	"meshes":[
		{
			"name":"boat_mesh",
			"primitives":[
				{
					"attributes":{
						"POSITION":0,
						"TEXCOORD_0":1,
						"NORMAL":2
					},
					"indices":3,
					"material":0
				}
			]
		}
	],
	"textures":[
		{
			"sampler":0,
			"source":0
		},
		{
			"sampler":0,
			"source":1
		},
		{
			"sampler":0,
			"source":2
		}
	],
	"images":[
		{
			"mimeType":"image/png",
			"name":"Image_2",
			"uri":"textures/Image_2.png"
		},
		{
			"mimeType":"image/png",
			"name":"Image_0",
			"uri":"textures/Image_0.png"
		},
		{
			"mimeType":"image/png",
			"name":"Image_1",
			"uri":"textures/Image_1.png"
		}
	],
	"accessors":[
		{
			"bufferView":0,
			"componentType":5126,
			"count":3104,
			"max":[
				0.4121602177619934,
				0.2138214111328125,
				0.7327312231063843
			],
			"min":[
				-0.4126189053058624,
				-0.23008191585540771,
				-0.9344972968101501
			],
			"type":"VEC3"
		},
		{
			"bufferView":1,
			"componentType":5126,
			"count":3104,
			"type":"VEC2"
		},
		{
			"bufferView":2,
			"componentType":5126,
			"count":3104,
			"type":"VEC3"
		},
		{
			"bufferView":3,
			"componentType":5123,
			"count":8160,
			"type":"SCALAR"
		}
	],
	"bufferViews":[
		{
			"buffer":0,
			"byteLength":37248,
			"byteOffset":0,
			"target":34962
		},
		{
			"buffer":0,
			"byteLength":24832,
			"byteOffset":37248,
			"target":34962
		},
		{
			"buffer":0,
			"byteLength":37248,
			"byteOffset":62080,
			"target":34962
		},
		{
			"buffer":0,
			"byteLength":16320,
			"byteOffset":99328,
			"target":34963
		}
	],
	"samplers":[
		{
			"magFilter":9729,
			"minFilter":9987
		}
	],
	"buffers":[
		{
			"byteLength":115648,
			"uri":"boat.bin"
		}
	]
}
